<?xml version="1.0" encoding="UTF-8" standalone="no"?>
<!-- Created with Serif DrawPlus 11, 0, 0, 18 (Sep 30, 15:06:09) (http://www.serif.com) -->
<svg version="1.1" xmlns="http://www.w3.org/2000/svg" xmlns:xlink="http://www.w3.org/1999/xlink" width="60.1347" height="60.1347">
	<g id="selection" transform="matrix(1,0,0,1,-498.133,-95.5333)">
		<path id="dp_path001" fill="black" fill-rule="evenodd" stroke="none" stroke-width="1.33333" d="M 556.397,125.301 L 545.468,115.819 L 545.468,120.56 L 533.04,120.56 L 533.04,108.131 L 537.781,108.131 L 528.299,97.2013 L 518.817,108.131 L 523.557,108.131 L 523.557,120.56 L 511.131,120.56 L 511.131,115.819 L 500.201,125.301 L 511.131,134.783 L 511.131,130.043 L 523.557,130.043 L 523.557,142.468 L 518.817,142.468 L 528.299,153.397 L 537.781,142.468 L 533.04,142.468 L 533.04,130.043 L 545.468,130.043 L 545.468,134.783 Z "/>
		<path id="dp_path002" fill="none" fill-rule="evenodd" stroke="none" stroke-width="1.33333" d="M 498.8,96.2 L 557.6,96.2 L 557.6,155 L 498.8,155 Z "/>
	</g>
</svg>