<?xml version="1.0" encoding="UTF-8" standalone="no"?>
<!-- Created with Serif DrawPlus 11, 0, 0, 18 (Sep 30, 15:06:09) (http://www.serif.com) -->
<svg version="1.1" xmlns="http://www.w3.org/2000/svg" xmlns:xlink="http://www.w3.org/1999/xlink" width="60.1347" height="60.1347">
	<g id="selection" transform="matrix(1,0,0,1,-434.133,-95.7333)">
		<path id="dp_path001" fill="none" fill-rule="evenodd" stroke="none" stroke-width="1.33333" d="M 434.8,96.4 L 493.6,96.4 L 493.6,155.2 L 434.8,155.2 Z "/>
		<path id="dp_path002" fill="black" fill-rule="evenodd" stroke="none" stroke-width="1.33333" d="M 469.248,149.887 L 468.185,148.253 C 459.331,149.981 449.964,146.396 444.805,138.46 C 440.228,131.419 440.12,122.748 443.763,115.721 L 447.003,120.705 L 453.892,107.367 L 455.671,103.924 L 453.105,104.076 L 436.816,105.037 L 442.635,113.985 C 438.199,121.729 438.115,131.549 443.26,139.464 C 448.977,148.256 459.469,152.104 469.248,149.887 Z M 472.311,148.051 L 474.827,147.901 L 474.828,147.9 L 491.165,146.937 L 485.387,138.049 C 489.9,130.28 490.013,120.391 484.839,112.432 C 479.073,103.563 468.456,99.7213 458.609,102.061 L 459.669,103.692 C 468.597,101.843 478.085,105.423 483.295,113.436 C 487.903,120.523 487.98,129.263 484.26,136.317 L 480.979,131.269 L 474.041,144.699 L 474.043,144.7 Z "/>
	</g>
</svg>