<?xml version="1.0" encoding="UTF-8" standalone="no"?>
<!-- Created with Serif DrawPlus 11, 0, 0, 18 (Sep 30, 15:06:09) (http://www.serif.com) -->
<svg version="1.1" xmlns="http://www.w3.org/2000/svg" xmlns:xlink="http://www.w3.org/1999/xlink" width="73.796" height="63.756">
	<path id="dp_path001" transform="matrix(1,0,0,1,-362.796,-92.544)" fill="black" fill-rule="evenodd" stroke="none" stroke-width="1.33333" d="M 369.135,142.305 L 374.949,149.748 L 378.453,147.011 L 375.271,142.936 L 377.163,141.457 L 380.347,145.532 L 382.887,143.547 L 380.781,140.852 L 382.673,139.373 L 384.779,142.068 L 387.32,140.084 L 384.136,136.009 L 386.028,134.531 L 389.212,138.605 L 391.752,136.62 L 389.647,133.925 L 391.539,132.447 L 393.644,135.141 L 396.087,133.235 L 392.903,129.16 L 394.796,127.681 L 397.979,131.756 L 400.519,129.771 L 398.413,127.076 L 400.305,125.597 L 402.412,128.292 L 404.952,126.308 L 401.769,122.233 L 403.661,120.755 L 406.844,124.829 L 409.385,122.844 L 407.28,120.149 L 409.172,118.671 L 411.277,121.365 L 413.028,119.999 L 409.844,115.924 L 411.736,114.445 L 414.92,118.52 L 417.46,116.535 L 415.355,113.84 L 417.247,112.361 L 419.353,115.056 L 421.893,113.072 L 418.709,108.997 L 420.603,107.519 L 423.785,111.593 L 426.327,109.608 L 424.22,106.913 L 426.113,105.435 L 428.219,108.129 L 430.253,106.54 L 424.439,99.0973 Z M 363.731,140.757 L 424.244,93.4787 L 435.656,108.085 L 375.143,155.364 Z "/>
</svg>