<?xml version="1.0" encoding="UTF-8" standalone="no"?>
<!-- Created with Serif DrawPlus 11, 0, 0, 18 (Sep 30, 15:06:09) (http://www.serif.com) -->
<svg version="1.1" xmlns="http://www.w3.org/2000/svg" xmlns:xlink="http://www.w3.org/1999/xlink" xmlns:i="http://ns.adobe.com/AdobeIllustrator/10.0/" width="81.8347" height="81.848">
	<path id="dp_path001" transform="matrix(1,0,0,1,-357.823,-210.479)" fill="black" fill-rule="evenodd" stroke="none" stroke-width="1.33333" d="M 402.876,253.995 C 397.145,253.995 392.501,258.64 392.501,264.369 C 392.501,270.099 397.147,274.744 402.876,274.744 C 408.605,274.744 413.251,270.099 413.251,264.369 C 413.251,258.64 408.605,253.995 402.876,253.995 Z M 402.876,248.245 C 411.781,248.245 419.001,255.465 419.001,264.371 C 419.001,273.276 411.781,280.496 402.876,280.496 C 393.971,280.496 386.751,273.276 386.751,264.371 C 386.751,255.465 393.971,248.245 402.876,248.245 Z M 368.629,220.049 L 368.629,235.831 C 368.629,239.911 371.937,243.219 376.017,243.219 L 403.323,243.219 C 407.403,243.219 410.711,239.911 410.711,235.831 L 410.711,217.96 L 412.42,217.96 L 432.189,241.721 L 432.189,275.695 C 432.189,280.756 428.085,284.86 423.024,284.86 L 374.455,284.86 C 369.393,284.86 365.289,280.756 365.289,275.695 L 365.289,227.125 C 365.289,226.176 365.433,225.26 365.701,224.4 C 366.236,222.675 367.268,221.169 368.629,220.049 Z M 374.089,213.12 L 403.969,213.12 L 403.969,231.633 C 403.969,234.703 401.481,237.191 398.412,237.191 L 379.647,237.191 C 376.577,237.191 374.089,234.703 374.089,231.633 Z M 407.12,211.145 L 410.711,211.16 L 414.571,211.16 L 438.989,240.511 L 438.989,280.632 C 438.989,286.723 434.052,291.66 427.961,291.66 L 369.517,291.66 C 363.427,291.66 358.489,286.723 358.489,280.632 L 358.489,222.188 C 358.489,216.396 362.953,211.647 368.629,211.196 L 369.6,211.195 Z "/>
</svg>