<?xml version="1.0" encoding="UTF-8" standalone="no"?>
<!-- Created with Serif DrawPlus 11, 0, 0, 18 (Sep 30, 15:06:09) (http://www.serif.com) -->
<svg version="1.1" xmlns="http://www.w3.org/2000/svg" xmlns:xlink="http://www.w3.org/1999/xlink" xmlns:i="http://ns.adobe.com/AdobeIllustrator/10.0/" width="85.9333" height="92.492">
	<path id="dp_path001" transform="matrix(1,0,0,1,-262.833,-205.833)" fill="black" fill-rule="evenodd" stroke="none" stroke-width="1.33333" d="M 271.44,219.693 C 272.56,216.381 275.693,213.999 279.384,213.999 L 328.116,213.999 C 332.747,213.999 336.5,217.752 336.5,222.383 L 336.5,233.393 C 339.4,234.951 341.977,237.148 344,239.893 L 344,216.804 C 344,211.113 339.387,206.5 333.696,206.5 L 273.804,206.5 C 268.113,206.5 263.5,211.113 263.5,216.804 L 263.5,276.696 C 263.5,282.387 268.113,287 273.804,287 L 333.696,287 C 333.995,287 334.291,286.987 334.584,286.961 L 330.997,278.992 C 330.099,279.321 329.128,279.501 328.116,279.501 L 279.384,279.501 C 274.753,279.501 271,275.748 271,271.117 L 271,222.383 C 271,221.441 271.155,220.537 271.44,219.693 Z M 317.724,235.421 C 327.623,231 339.231,235.44 343.652,245.339 C 347.457,253.857 344.697,263.645 337.543,269.025 L 348.027,292.495 C 348.728,294.065 348.024,295.905 346.453,296.607 L 344.264,297.585 C 342.693,298.287 340.852,297.583 340.151,296.012 L 329.681,272.575 C 320.851,274.4 311.635,269.921 307.807,261.351 C 303.385,251.452 307.825,239.844 317.724,235.421 Z M 339.881,271.143 C 341.455,269.889 342.835,268.448 344,266.867 L 344,276.696 C 344,277.653 343.868,278.581 343.624,279.461 C 342.376,276.688 341.128,273.915 339.881,271.143 Z M 274.5,258.353 L 303.601,258.353 C 303.927,259.796 304.4,261.228 305.027,262.632 C 305.885,264.557 306.98,266.304 308.263,267.853 L 274.5,267.853 Z M 320.383,241.376 C 313.773,244.329 310.808,252.08 313.761,258.691 C 316.715,265.301 324.465,268.265 331.076,265.312 C 337.687,262.36 340.651,254.609 337.697,247.999 C 334.745,241.388 326.993,238.423 320.383,241.376 Z M 274.5,239.427 L 307.835,239.427 C 305.664,242.217 304.179,245.479 303.489,248.927 L 274.5,248.927 Z M 274.5,220.629 L 325.495,220.629 L 325.495,230.129 L 274.5,230.129 Z "/>
</svg>